<svg version="1.1" viewBox="0 0 96 96" xmlns="http://www.w3.org/2000/svg" xmlns:xlink="http://www.w3.org/1999/xlink" id="Icons_Building" overflow="hidden">
<g><path class="change-to-grey" d=" M 65 29 L 59 29 L 59 23 L 65 23 L 65 29 Z M 65 45 L 59 45 L 59 39 L 65 39 L 65 45 Z M 65 61 L 59 61 L 59 55 L 65 55 L 65 61 Z M 65 77 L 59 77 L 59 71 L 65 71 L 65 77 Z M 51 29 L 45 29 L 45 23 L 51 23 L 51 29 Z M 51 45 L 45 45 L 45 39 L 51 39 L 51 45 Z M 51 61 L 45 61 L 45 55 L 51 55 L 51 61 Z M 51 83 L 45 83 L 45 71 L 51 71 L 51 83 Z M 37 29 L 31 29 L 31 23 L 37 23 L 37 29 Z M 37 45 L 31 45 L 31 39 L 37 39 L 37 45 Z M 37 61 L 31 61 L 31 55 L 37 55 L 37 61 Z M 37 77 L 31 77 L 31 71 L 37 71 L 37 77 Z M 72 83 L 72 16 L 69 16 L 69 10 L 66 10 L 66 6 L 30 6 L 30 10 L 27 10 L 27 16 L 24 16 L 24 83 L 20 83 L 20 90 L 76 90 L 76 83 L 72 83 Z" stroke="none" stroke-width="1" stroke-dasharray="" stroke-dashoffset="1" fill="#000000" fill-opacity="1"/>
</g>
</svg>